<svg xmlns="http://www.w3.org/2000/svg" width="155.531" height="31" viewBox="0 0 155.531 31"><path d="M18.6-17.494H6.689v4.37H17.656v3.352H6.689v5.42H18.924V-1H2.3V-20.879H18.6Zm4.256-3.385h4.5V-4.4H38.419V-1H22.855ZM49.452-8.9H55.46l-3.032-7.355Zm.758-11.981h4.7L63.59-1H58.833L56.811-5.483H48.132L46.289-1H41.651Zm31.744,0h6.577V-1h-4.08V-16.681L80.194-1.057H75.825L71.543-16.681V-1.057H67.355V-20.879h6.719L78.049-7.35Z" transform="translate(67 21)" fill="#3685b9"/><rect width="29" height="9" transform="translate(38)" fill="#3685b9"/><rect width="48" height="9" transform="translate(19 11)" fill="#6d6e71"/><rect width="67" height="9" transform="translate(0 22)" fill="#6d6e71"/><path d="M59.8-3.519a5.4,5.4,0,0,1-.432,2.241A3.271,3.271,0,0,1,58.143.182a3.366,3.366,0,0,1-1.847.5A3.338,3.338,0,0,1,54.467.179a3.349,3.349,0,0,1-1.24-1.445,5.184,5.184,0,0,1-.454-2.174v-.63A5.338,5.338,0,0,1,53.211-6.3,3.338,3.338,0,0,1,54.45-7.77a3.323,3.323,0,0,1,1.832-.513,3.386,3.386,0,0,1,1.851.507A3.265,3.265,0,0,1,59.365-6.3,5.429,5.429,0,0,1,59.8-4.06Zm-1.146-.567a3.915,3.915,0,0,0-.624-2.383A2.058,2.058,0,0,0,56.283-7.3a2.035,2.035,0,0,0-1.719.831,3.836,3.836,0,0,0-.644,2.307v.642a3.921,3.921,0,0,0,.633,2.367A2.042,2.042,0,0,0,56.3-.292,2.035,2.035,0,0,0,58.023-1.1a3.9,3.9,0,0,0,.63-2.33Z" transform="translate(27.228 30.264)" fill="#606060"/><path d="M59.8-3.519a5.4,5.4,0,0,1-.432,2.241A3.271,3.271,0,0,1,58.143.182a3.366,3.366,0,0,1-1.847.5A3.338,3.338,0,0,1,54.467.179a3.349,3.349,0,0,1-1.24-1.445,5.184,5.184,0,0,1-.454-2.174v-.63A5.338,5.338,0,0,1,53.211-6.3,3.338,3.338,0,0,1,54.45-7.77a3.323,3.323,0,0,1,1.832-.513,3.386,3.386,0,0,1,1.851.507A3.265,3.265,0,0,1,59.365-6.3,5.429,5.429,0,0,1,59.8-4.06Zm-1.146-.567a3.915,3.915,0,0,0-.624-2.383A2.058,2.058,0,0,0,56.283-7.3a2.035,2.035,0,0,0-1.719.831,3.836,3.836,0,0,0-.644,2.307v.642a3.921,3.921,0,0,0,.633,2.367A2.042,2.042,0,0,0,56.3-.292,2.035,2.035,0,0,0,58.023-1.1a3.9,3.9,0,0,0,.63-2.33Z" transform="translate(74.228 30.264)" fill="#606060"/><path d="M64.688-.376h4.139V.565h-5.3V-8.171h1.162Z" transform="translate(27.474 30.261)" fill="#606060"/><path d="M78.964-8.169V-2.23a2.785,2.785,0,0,1-.777,2.022A3.13,3.13,0,0,1,76.1.673l-.306.012a3.269,3.269,0,0,1-2.285-.774,2.767,2.767,0,0,1-.863-2.13v-5.95h1.135v5.915A2,2,0,0,0,74.3-.778a2.006,2.006,0,0,0,1.487.525,2.02,2.02,0,0,0,1.5-.522A1.994,1.994,0,0,0,77.8-2.25V-8.168Z" transform="translate(27.36 30.261)" fill="#606060"/><path d="M117.6.565h-1.157l-4.394-6.73V.565H110.9V-8.171h1.157l4.409,6.76V-8.168H117.6Z" transform="translate(27.105 30.261)" fill="#606060"/><path d="M95.344.565H94.192V-8.171h1.152Z" transform="translate(27.808 30.261)" fill="#606060"/><path d="M89.817-7.227H87.005V.565H85.86V-7.226h-2.8v-.942h6.754Z" transform="translate(27.945 30.261)" fill="#606060"/><path d="M45.372-3.316a5.428,5.428,0,0,1-2.161-1.05A2,2,0,0,1,42.535-5.9a2.118,2.118,0,0,1,.827-1.706,3.286,3.286,0,0,1,2.149-.677,3.587,3.587,0,0,1,1.608.349,2.644,2.644,0,0,1,1.094.962A2.46,2.46,0,0,1,48.6-5.632h-1.16a1.6,1.6,0,0,0-.5-1.251,2.054,2.054,0,0,0-1.425-.455,2.1,2.1,0,0,0-1.332.376A1.251,1.251,0,0,0,43.7-5.917a1.129,1.129,0,0,0,.455.91,4.452,4.452,0,0,0,1.546.682,7.165,7.165,0,0,1,1.706.682,2.591,2.591,0,0,1,.91.863,2.2,2.2,0,0,1,.3,1.16,2.047,2.047,0,0,1-.83,1.706,3.538,3.538,0,0,1-2.219.64A4.115,4.115,0,0,1,43.883.386a2.833,2.833,0,0,1-1.205-.947,2.311,2.311,0,0,1-.424-1.365h1.16A1.508,1.508,0,0,0,44-.675a2.468,2.468,0,0,0,1.566.455,2.275,2.275,0,0,0,1.4-.373,1.211,1.211,0,0,0,.487-1.016A1.188,1.188,0,0,0,47-2.6a5.2,5.2,0,0,0-1.626-.712Z" transform="translate(106.747 30.268)" fill="#606060"/><path d="M45.372-3.316a5.428,5.428,0,0,1-2.161-1.05A2,2,0,0,1,42.535-5.9a2.118,2.118,0,0,1,.827-1.706,3.286,3.286,0,0,1,2.149-.677,3.587,3.587,0,0,1,1.608.349,2.644,2.644,0,0,1,1.094.962A2.46,2.46,0,0,1,48.6-5.632h-1.16a1.6,1.6,0,0,0-.5-1.251,2.054,2.054,0,0,0-1.425-.455,2.1,2.1,0,0,0-1.332.376A1.251,1.251,0,0,0,43.7-5.917a1.129,1.129,0,0,0,.455.91,4.452,4.452,0,0,0,1.546.682,7.165,7.165,0,0,1,1.706.682,2.591,2.591,0,0,1,.91.863,2.2,2.2,0,0,1,.3,1.16,2.047,2.047,0,0,1-.83,1.706,3.538,3.538,0,0,1-2.219.64A4.115,4.115,0,0,1,43.883.386a2.833,2.833,0,0,1-1.205-.947,2.311,2.311,0,0,1-.424-1.365h1.16A1.508,1.508,0,0,0,44-.675a2.468,2.468,0,0,0,1.566.455,2.275,2.275,0,0,0,1.4-.373,1.211,1.211,0,0,0,.487-1.016A1.188,1.188,0,0,0,47-2.6a5.2,5.2,0,0,0-1.626-.712Z" transform="translate(26.747 30.268)" fill="#606060"/></svg>